<?xml version="1.0" encoding="utf-8"?>
<!-- Generator: Adobe Illustrator 16.0.3, SVG Export Plug-In . SVG Version: 6.00 Build 0)  -->
<!DOCTYPE svg PUBLIC "-//W3C//DTD SVG 1.1//EN" "http://www.w3.org/Graphics/SVG/1.1/DTD/svg11.dtd">
<svg version="1.1" id="Layer_1" xmlns="http://www.w3.org/2000/svg" xmlns:xlink="http://www.w3.org/1999/xlink" x="0px" y="0px"
	 width="824px" height="191px" viewBox="0 0 824 191" enable-background="new 0 0 824 191" xml:space="preserve">
<g>
	<path fill-rule="evenodd" clip-rule="evenodd" fill="#FFFFFF" d="M181.997,100.16c-0.066,46.61-38.39,83.833-86.26,83.781
		c-46.663-0.051-84.802-38.005-84.732-84.323C11.072,53.699,49.71,15.947,96.55,16.033C143.797,16.12,182.063,53.793,181.997,100.16
		z M59.205,153.384c0-3.283,0.001-5.042,0-6.8c-0.019-24.658-0.007-49.316-0.087-73.974c-0.012-3.828,0.697-6.539,5.384-6.492
		c13.49,0.136,26.982,0.16,40.474,0.136c3.181-0.005,4.655,1.51,4.661,4.511c0.028,13.159-0.004,26.318-0.012,39.479
		c-0.002,2.834-1.29,4.357-4.249,4.282c-3.496-0.09-6.992-0.163-10.489-0.185c-8.665-0.054-9.772-0.326-8.913,8.973
		c0.137,1.48,0.026,3.006-0.156,4.486c-0.514,4.179,1.351,5.583,5.427,5.518c10.825-0.173,21.659-0.241,32.479,0.033
		c4.397,0.112,5.95-1.581,5.94-5.724c-0.057-24.822-0.08-49.647-0.006-74.471c0.013-4.173-1.545-5.888-5.854-5.869
		C97.647,47.405,71.49,47.4,45.332,47.295c-4.417-0.018-6.236,1.56-6.209,6.11c0.149,25.49,0.084,50.981,0.203,76.473
		c0.009,1.894,0.293,4.355,1.466,5.576C46.382,141.274,52.324,146.757,59.205,153.384z M135.885,50.557
		c-0.532,0.068-1.064,0.137-1.597,0.205c-0.391,2.335-1.115,4.669-1.122,7.006c-0.075,24.322-0.125,48.645,0.054,72.966
		c0.035,4.722-1.385,6.393-6.276,6.273c-12.819-0.313-25.652-0.097-38.479-0.109c-6.032-0.006-6.398-0.393-6.387-6.656
		c0.018-9.829,0.083-19.656,0.077-29.485c-0.008-12.947,0.87-13.732,13.796-12.042c8.343,1.091,10.311-0.627,10.101-8.83
		c-0.038-1.498-0.2-3.002-0.115-4.493c0.227-3.971-1.303-5.656-5.538-5.559c-10.49,0.24-20.993,0.259-31.482-0.004
		c-4.692-0.118-6.082,1.76-6.061,6.18c0.12,24.32,0.046,48.641,0.065,72.961c0.005,5.917,0.699,6.685,6.56,6.694
		c25.484,0.042,50.969-0.035,76.453,0.065c4.561,0.019,6.548-1.546,6.514-6.355c-0.181-25.321-0.117-50.644-0.236-75.964
		c-0.009-1.917-0.19-4.31-1.295-5.664C146.108,61.852,140.93,56.259,135.885,50.557z"/>
	<path fill-rule="evenodd" clip-rule="evenodd" fill="#FFFFFF" d="M754.372,99.916c-0.006-12.477-0.032-24.955,0.004-37.431
		c0.021-7.108,0.566-7.592,7.691-7.479c1.331,0.021,2.662,0.061,3.992,0.05c10.169-0.08,10.188-0.083,10.162,9.904
		c-0.045,17.801-0.13,35.602-0.168,53.403c-0.016,7.114,0.602,7.678,7.641,7.649c8.484-0.034,16.971,0.054,25.453-0.089
		c3.614-0.061,5.016,1.572,5.301,5.013c1.121,13.506,0.78,13.966-12.526,14.007c-13.642,0.041-27.284,0.04-40.926,0.029
		c-5.787-0.005-6.579-0.756-6.603-6.627C754.344,125.536,754.379,112.726,754.372,99.916z"/>
	<path fill-rule="evenodd" clip-rule="evenodd" fill="#FFFFFF" d="M383.816,100.007c0.006-13.149,0.147-26.3-0.073-39.445
		c-0.075-4.444,1.559-5.85,5.844-5.625c9.446,0.495,19.019-0.127,28.338,1.164c13.2,1.829,21.805,9.869,25.456,22.848
		c3.649,12.98,0.236,23.893-9.728,32.877c-5.375,4.849-5.322,4.868-1.715,11.001c3.117,5.297,6.269,10.578,9.229,15.963
		c2.641,4.802,1.79,5.634-3.766,6.286c-9.063,1.064-15.468-1.918-19.173-10.506c-1.438-3.334-3.535-6.379-5.266-9.591
		c-1.524-2.83-3.551-4.022-6.934-3.28c-3.573,0.784-4.405,2.898-4.281,6.128c0.152,3.99,0.096,7.988,0.05,11.983
		c-0.039,3.356-1.515,5.236-5.176,5.191c-15.184-0.187-12.712,1.577-12.798-12.038C383.754,121.979,383.81,110.993,383.816,100.007z
		 M402.066,90.416c-0.08,0.005-0.16,0.011-0.24,0.016c0,0.499-0.002,0.998,0,1.497c0.059,13.646,0.697,14.074,13.753,9.222
		c8.324-3.095,12.099-10.532,9.208-18.15c-2.673-7.049-13.008-11.981-19.853-9.03c-1.641,0.708-3.32,3.236-3.482,5.06
		C401.121,82.778,401.803,86.615,402.066,90.416z"/>
	<path fill-rule="evenodd" clip-rule="evenodd" fill="#FFFFFF" d="M207.794,99.64c0-12.658-0.018-25.315,0.008-37.973
		c0.012-6.118,0.551-6.674,6.482-6.685c14.156-0.023,28.315,0.117,42.468-0.079c4.601-0.064,6.723,1.311,6.616,6.222
		c-0.348,15.955,0.967,12.545-12.67,12.846c-5.493,0.121-11,0.202-16.485-0.041c-4.006-0.176-5.314,1.507-5.187,5.307
		c0.185,5.49,0.184,10.995,0,16.483c-0.127,3.785,1.145,5.536,5.168,5.322c4.65-0.248,9.324-0.014,13.986-0.092
		c3.338-0.057,4.922,1.423,4.839,4.8c-0.078,3.162-0.077,6.329,0.007,9.492c0.091,3.445-1.695,4.785-4.922,4.763
		c-4.83-0.034-9.663,0.081-14.488-0.075c-3.244-0.104-4.569,1.373-4.545,4.451c0.04,4.996-0.056,9.996,0.105,14.987
		c0.128,3.974-1.385,5.907-5.555,5.668c-3.319-0.191-6.669-0.21-9.986,0.007c-4.398,0.286-5.936-1.783-5.909-5.933
		c0.087-13.156,0.032-26.314,0.032-39.472C207.771,99.64,207.783,99.64,207.794,99.64z"/>
	<path fill-rule="evenodd" clip-rule="evenodd" fill="#FFFFFF" d="M536.688,100.636c-0.779-24.828,18.419-44.476,40.573-46.69
		c30.422-3.041,49.812,21.818,50.224,45.435c0.464,26.504-19.326,45.057-40.293,47.551
		C562.81,149.832,536.565,131.789,536.688,100.636z M607.896,100.922c0-15.16-11.407-27.362-26.064-26.794
		c-15.942,0.618-24.987,9.94-25.558,26.211c-0.507,14.462,11.33,26.643,25.213,26.628
		C596.246,126.951,607.897,115.461,607.896,100.922z"/>
	<path fill-rule="evenodd" clip-rule="evenodd" fill="#FFFFFF" d="M736.396,99.838c0.739,24.143-19.191,46.058-42.211,47.247
		c-27.819,1.438-47.081-20.444-48.415-43.285c-1.627-27.855,19.434-48.624,42.261-49.983
		C713.884,52.277,735.942,72.774,736.396,99.838z M690.875,73.922c-14.439,0.052-25.92,11.821-25.938,26.594
		c-0.02,14.811,11.788,26.584,26.568,26.493c14.029-0.086,25.432-12.043,25.374-26.608C716.82,85.544,705.355,73.871,690.875,73.922
		z"/>
	<path fill-rule="evenodd" clip-rule="evenodd" fill="#FFFFFF" d="M503.97,74.007c0,13.555-0.001,26.516,0,39.476
		c0.001,8.994-0.081,17.989,0.054,26.981c0.048,3.213-1.183,4.585-4.372,4.524c-4.331-0.082-8.668-0.122-12.994,0.048
		c-3.291,0.13-4.41-1.348-4.413-4.468c-0.011-11.976-0.179-23.951-0.218-35.928c-0.028-8.632-0.043-17.269,0.131-25.9
		c0.075-3.733-1.452-5.002-5.083-4.789c-4.152,0.244-8.343-0.157-12.489,0.121c-3.48,0.234-4.86-1.401-5.206-4.491
		c-0.129-1.157-0.228-2.321-0.261-3.483c-0.279-9.683,1.095-11.119,10.571-11.125c17.16-0.011,34.324,0.089,51.483-0.12
		c4.37-0.054,6.169,1.575,5.962,5.777c-0.074,1.497-0.16,2.995-0.172,4.493c-0.073,9.7,1.231,8.851-9.329,8.881
		C513.316,74.018,508.998,74.007,503.97,74.007z"/>
	<path fill-rule="evenodd" clip-rule="evenodd" fill="#FFFFFF" d="M365.115,100.829c-0.138,26.319-20.033,46.288-46.005,46.177
		c-24.737-0.106-44.324-20.914-44.194-46.949c0.131-26.261,20.076-46.234,46.046-46.112
		C345.912,54.061,365.251,74.598,365.115,100.829z M319.764,127.014c14.625,0.11,26.086-11.399,26.17-26.281
		c0.084-14.878-10.924-26.633-25.104-26.806c-14.925-0.182-26.689,11.315-26.845,26.235
		C293.833,114.808,305.447,126.905,319.764,127.014z"/>
</g>
</svg>
